# xmcd
# Track frame offsets:
# 150
# 14045
# 25945
# 37777
# 47985
# 61645
# 75450
# 87672
# 98680
# 110005
# 120990
# 134740
# 145650
# 167010
# 180407
# 191515
# 204675
# 218560
# 231670
# 248242
# 261065
# 275837
# 287590
# 300847
#
# Disc length: 4170 seconds
# Revision: 0
# Processed by: cddbd v1.4PL0 Copyright (c) Steve Scherf et al.
# Submitted via: VisiTrax 2.9.5.181 - For more info visit www.synapsa.com
#
DISCID=52104818
DTITLE=Tanya Tucker - What's Your Mama's Name and Would You Lay With Me (In a F
DTITLE=ield of Stone)
DYEAR=1974
DGENRE=Country
TTITLE0=What's Your Mama's Name
TTITLE1=Horseshoe Bend
TTITLE2=The Chokin' Kind
TTITLE3=California Cotton Fields
TTITLE4=Teddy Bear Song
TTITLE5=Blood Red and Goin' Down
TTITLE6=Song Man
TTITLE7=The Missing Piece of the Puzzle
TTITLE8=Rainy Girl
TTITLE9=Pass Me By
TTITLE10=Teach Me the Words to Your Song
TTITLE11=Would You Lay with Me (In a Field of Stone)
TTITLE12=How Can I Tell Him
TTITLE13=Let Me Be There
TTITLE14=Bed of Roses
TTITLE15=The Man That Turned My Mama On
TTITLE16=I Believe the South Is Gonna Rise Again
TTITLE17=Old Dan Tucker's Daughter
TTITLE18=No Man's Land
TTITLE19=Why Me Lord?
TTITLE20=The Baptism of Jesse Taylor
TTITLE21=What If We Were Running Out of Love
TTITLE22=Delta Dawn [*]
TTITLE23=Love's the Answer [*]
EXTD=2on1 Track 1-11 c. 73 #12-22 c. 74 #23-24 bonus tracks. Collectables C
EXTD=OL CD 6097 c.6097 c. 99
EXTT0=
EXTT1=
EXTT2=
EXTT3=
EXTT4=
EXTT5=
EXTT6=
EXTT7=
EXTT8=
EXTT9=
EXTT10=
EXTT11=
EXTT12=
EXTT13=
EXTT14=
EXTT15=
EXTT16=
EXTT17=
EXTT18=
EXTT19=
EXTT20=
EXTT21=
EXTT22=
EXTT23=
PLAYORDER=
